<svg version="1.1" id="Layer_1" xmlns="http://www.w3.org/2000/svg" x="0px" y="0px" viewBox="-89.5 -149.5 240 420" enable-background="new -89.5 -149.5 240 420" width="240px" height="420px" xml:space="preserve"><g id="Layer_2_1_" display="none"><g display="inline"><rect x="0.499" y="0.5" fill="#FFE8AA" width="30" height="30"/><rect x="30.499" y="0.5" fill="#FEDE88" width="30" height="30"/><rect x="30.499" y="30.5" fill="#FFE8AA" width="30" height="30"/><rect x="0.499" y="30.5" fill="#FEDE88" width="30" height="30"/><rect x="30.499" y="90.5" fill="#FFE8AA" width="30" height="30"/><rect x="0.499" y="90.5" fill="#FEDE88" width="30" height="30"/><rect x="0.5" y="60.5" fill="#FFE8AA" width="30" height="30"/><rect x="30.5" y="60.5" fill="#FEDE88" width="30" height="30"/><rect x="30.499" y="120.5" fill="#FEDE88" width="30" height="30"/><rect x="0.499" y="120.5" fill="#FFE8AA" width="30" height="30"/></g></g><circle fill="#FFFFFF" cx="0.5" cy="-119.5" r="30"/><path fill="#5D5C5D" d="M18.5 172.5v24h-40v-24H18.5M22.5 168.5h-48v32h48V168.5L22.5 168.5z"/><rect x="-21.5" y="172.5" fill="#FFFFFF" width="40" height="24"/><rect x="-13.5" y="164.5" fill="#FFFFFF" width="40" height="24"/><rect x="-21.5" y="42.5" fill="#FFFFFF" width="36" height="44"/><path fill="#5D5C5D" d="M14.5 42.5v44h-36v-44H14.5M18.5 38.5h-44v52h44V38.5L18.5 38.5z"/><rect x="-13.5" y="34.5" fill="#FFFFFF" width="36" height="44"/><rect x="11.935" y="-135.934" transform="matrix(-0.7071 -0.7071 0.7071 -0.7071 117.7861 -217.0786)" fill="#5D5C5D" width="4" height="6.001"/><rect x="-21.5" y="-121.5" fill="#5D5C5D" width="6" height="4"/><rect x="16.5" y="-121.5" fill="#5D5C5D" width="6" height="4"/><rect x="-14.935" y="-135.933" transform="matrix(0.7071 -0.7071 0.7071 0.7071 90.2095 -48.0822)" fill="#5D5C5D" width="4" height="5.999"/><path fill="#EE836E" d="M8.5-111.498c0 0.693-0.117 1.355-0.283 1.998 -0.891 3.443-3.992 6-7.717 6 -3.725 0-6.826-2.557-7.717-6 -0.166-0.643-0.283-1.305-0.283-1.998 0-3.494 2.254-6.436 5.377-7.525L-1-141.5h3l1.123 22.477C6.246-117.934 8.5-114.992 8.5-111.498zM0.5-115.5c-2.211 0-4 1.793-4 4 0 2.209 1.789 4 4 4 2.211 0 4-1.791 4-4C4.5-113.707 2.711-115.5 0.5-115.5z"/><path fill="#5D5C5D" d="M0.5-149.5c-16.569 0-30 13.431-30 30s13.431 30 30 30 30-13.431 30-30S17.069-149.5 0.5-149.5zM0.5-145.5c14.359 0 26 11.641 26 26 0 3.545-0.715 6-1.999 10H12.32c-0.954 6-5.876 10-11.82 10s-10.866-4-11.82-10h-12.181c-1.284-4-1.999-6.455-1.999-10C-25.5-133.859-13.859-145.5 0.5-145.5z"/><rect x="-21.5" y="-25.5" fill="#FFFFFF" width="44" height="52"/><rect x="-25.5" y="-67.5" fill="#FFFFFF" width="52" height="32"/><polygon fill="#FFFFFF" points="22.5,-66.942 22.5,-81.5 -21.5,-81.5 -21.5,-66.942 0.5,-52.275   "/><path fill="#5D5C5D" d="M26.5-67.5v32h-52v-32h-4v36h60v-36H26.5z"/><rect x="-15.5" y="-77.5" fill="#5D5C5D" width="16" height="2"/><rect x="-15.5" y="-73.5" fill="#5D5C5D" width="32" height="2"/><rect x="-15.5" y="-69.5" fill="#5D5C5D" width="32" height="2"/><polygon fill="#95D1C4" points="0.5,-87.5 -8.5,-81.5 9.5,-81.5   "/><polygon fill="#95D1C4" points="22.5,-72.833 22.5,-67.5 22.5,-66.942 0.5,-52.275 -21.5,-66.942 -21.5,-67.5 -21.5,-72.833     -29.5,-67.5 0.5,-47.5 30.5,-67.5   "/><rect x="-17.5" y="-21.5" fill="#6DC5DC" width="36" height="14"/><polygon fill="#5D5C5D" points="-7.5,-3.5 -9.5,-3.5 -13.5,-3.5 -13.5,-1.5 -13.5,0.5 -11.5,0.5 -11.5,-1.5 -9.5,-1.5 -9.5,4.5    -11.5,4.5 -11.5,6.5 -9.5,6.5 -7.5,6.5 -5.5,6.5 -5.5,4.5 -7.5,4.5 -7.5,-1.5 -5.5,-1.5 -5.5,0.5 -3.5,0.5 -3.5,-1.5 -3.5,-3.5     "/><rect x="0.5" y="-3.5" fill="#5D5C5D" width="18" height="2"/><rect x="0.5" y="0.5" fill="#5D5C5D" width="18" height="2"/><rect x="0.5" y="4.5" fill="#5D5C5D" width="18" height="2"/><rect x="-17.5" y="10.5" fill="#5D5C5D" width="36" height="2"/><rect x="-17.5" y="14.5" fill="#5D5C5D" width="36" height="2"/><rect x="-17.5" y="18.5" fill="#5D5C5D" width="18" height="2"/><path fill="#5D5C5D" d="M22.5-25.5v52h-44v-52H22.5M26.5-29.5h-52v60h52V-29.5L26.5-29.5z"/><path fill="#5D5C5D" d="M22.5 34.5v44h-36v-44H22.5M26.5 30.5h-44v52h44V30.5L26.5 30.5z"/><rect x="-9.5" y="38.5" fill="#FED156" width="28" height="6"/><rect x="-25.5" y="98.5" fill="#FFFFFF" width="52" height="44"/><path fill="#5D5C5D" d="M26.5 98.5v44h-52v-44H26.5M30.5 94.5h-60v52h60V94.5L30.5 94.5z"/><rect x="-21.5" y="136.5" fill="#5D5C5D" width="44" height="2"/><path fill="#5D5C5D" d="M26.5 164.5v24h-40v-24H26.5M30.5 160.5h-48v32h48V160.5L30.5 160.5z"/><rect x="0.5" y="174.5" fill="#EE836E" width="12" height="2"/><rect x="0.5" y="178.5" fill="#EE836E" width="12" height="2"/><rect x="16.5" y="168.5" fill="#EE836E" width="6" height="6"/><rect x="-29.5" y="160.5" fill="#5D5C5D" width="12" height="2"/><rect x="-29.5" y="164.5" fill="#5D5C5D" width="12" height="2"/><path fill="#5D5C5D" d="M17.712 254.888L7.7 244.872c4.105-5.484 3.684-13.287-1.301-18.273 -5.467-5.465-14.334-5.465-19.801 0.002 -5.465 5.465-5.465 14.332 0 19.797 4.984 4.986 12.789 5.408 18.273 1.299l10.012 10.016L17.712 254.888zM-10.573 243.571c-3.898-3.899-3.898-10.242 0-14.141 3.898-3.898 10.244-3.898 14.143 0 3.9 3.899 3.9 10.242 0 14.141C-0.329 247.473-6.673 247.473-10.573 243.571z"/><circle fill="#FFFFFF" cx="-3.5" cy="236.5" r="10"/><rect x="-48.065" y="-135.934" transform="matrix(-0.7071 -0.7071 0.7071 -0.7071 15.3597 -259.505)" fill="#B7B7B7" width="4" height="6.001"/><rect x="-81.5" y="-121.5" fill="#B7B7B7" width="6" height="4"/><rect x="-43.5" y="-121.5" fill="#B7B7B7" width="6" height="4"/><rect x="-74.935" y="-135.933" transform="matrix(0.7071 -0.7071 0.7071 0.7071 72.6359 -90.5086)" fill="#B7B7B7" width="4" height="5.999"/><path fill="#B7B7B7" d="M-51.5-111.498c0 0.693-0.117 1.355-0.283 1.998 -0.891 3.443-3.992 6-7.717 6 -3.725 0-6.826-2.557-7.717-6 -0.166-0.643-0.283-1.305-0.283-1.998 0-3.494 2.254-6.436 5.377-7.525L-61-141.5h3l1.123 22.477C-53.754-117.934-51.5-114.992-51.5-111.498zM-59.5-115.5c-2.211 0-4 1.793-4 4 0 2.209 1.789 4 4 4 2.211 0 4-1.791 4-4C-55.5-113.707-57.289-115.5-59.5-115.5z"/><path fill="#B7B7B7" d="M-59.5-149.5c-16.569 0-30 13.431-30 30s13.431 30 30 30 30-13.431 30-30S-42.931-149.5-59.5-149.5zM-59.5-145.5c14.359 0 26 11.641 26 26 0 3.545-0.715 6-1.999 10H-47.68c-0.954 6-5.876 10-11.82 10s-10.866-4-11.82-10h-12.181c-1.284-4-1.999-6.455-1.999-10C-85.5-133.859-73.859-145.5-59.5-145.5z"/><rect x="-75.5" y="-77.5" fill="#B7B7B7" width="16" height="2"/><rect x="-75.5" y="-73.5" fill="#B7B7B7" width="32" height="2"/><rect x="-75.5" y="-69.5" fill="#B7B7B7" width="32" height="2"/><polygon fill="#B7B7B7" points="-59.5,-87.5 -68.5,-81.5 -50.5,-81.5   "/><path fill="#B7B7B7" d="M-37.5-72.833v5.333 0.558l-22 14.667 -22-14.667V-67.5v-5.333l-8 5.333v36h60v-36L-37.5-72.833zM-33.5-35.5h-52v-29.333l26 17.333 26-17.333V-35.5z"/><rect x="-77.5" y="-21.5" fill="#B7B7B7" width="36" height="14"/><polygon fill="#B7B7B7" points="-67.5,-3.5 -69.5,-3.5 -73.5,-3.5 -73.5,-1.5 -73.5,0.5 -71.5,0.5 -71.5,-1.5 -69.5,-1.5    -69.5,4.5 -71.5,4.5 -71.5,6.5 -69.5,6.5 -67.5,6.5 -65.5,6.5 -65.5,4.5 -67.5,4.5 -67.5,-1.5 -65.5,-1.5 -65.5,0.5 -63.5,0.5    -63.5,-1.5 -63.5,-3.5  "/><rect x="-59.5" y="-3.5" fill="#B7B7B7" width="18" height="2"/><rect x="-59.5" y="0.5" fill="#B7B7B7" width="18" height="2"/><rect x="-59.5" y="4.5" fill="#B7B7B7" width="18" height="2"/><rect x="-77.5" y="10.5" fill="#B7B7B7" width="36" height="2"/><rect x="-77.5" y="14.5" fill="#B7B7B7" width="36" height="2"/><rect x="-77.5" y="18.5" fill="#B7B7B7" width="18" height="2"/><path fill="#B7B7B7" d="M-37.5-25.5v52h-44v-52H-37.5M-33.5-29.5h-52v60h52V-29.5L-33.5-29.5z"/><path fill="#B7B7B7" d="M-77.5 160.5h-12v2h12v2h-12v2h12v2h-8v32h48v-8h8v-32H-77.5zM-41.5 196.5h-40v-24h4v20h36V196.5zM-33.5 188.5h-4 -4 -32v-16 -4 -4h40V188.5z"/><rect x="-59.5" y="174.5" fill="#B7B7B7" width="12" height="2"/><rect x="-59.5" y="178.5" fill="#B7B7B7" width="12" height="2"/><rect x="-43.5" y="168.5" fill="#B7B7B7" width="6" height="6"/><path fill="#B7B7B7" d="M-42.288 254.888L-52.3 244.872c4.105-5.484 3.684-13.287-1.301-18.273 -5.467-5.465-14.334-5.465-19.801 0.002 -5.465 5.465-5.465 14.332 0 19.797 4.984 4.986 12.789 5.408 18.273 1.299l10.012 10.016L-42.288 254.888zM-70.573 243.571c-3.898-3.899-3.898-10.242 0-14.141 3.898-3.898 10.244-3.898 14.143 0 3.9 3.899 3.9 10.242 0 14.141C-60.329 247.473-66.673 247.473-70.573 243.571z"/><rect x="-9.5" y="48.5" fill="#5D5C5D" width="4" height="2"/><rect x="-1.5" y="48.5" fill="#5D5C5D" width="20" height="2"/><rect x="-9.5" y="54.5" fill="#5D5C5D" width="4" height="2"/><rect x="-1.5" y="54.5" fill="#5D5C5D" width="20" height="2"/><rect x="-9.5" y="60.5" fill="#5D5C5D" width="4" height="2"/><rect x="-1.5" y="60.5" fill="#5D5C5D" width="20" height="2"/><rect x="-9.5" y="66.5" fill="#5D5C5D" width="4" height="2"/><rect x="-1.5" y="66.5" fill="#5D5C5D" width="20" height="2"/><rect x="-9.5" y="72.5" fill="#5D5C5D" width="4" height="2"/><rect x="-21.5" y="130.5" fill="#5D5C5D" width="4" height="2"/><rect x="-21.5" y="124.5" fill="#5D5C5D" width="4" height="2"/><rect x="-21.5" y="118.5" fill="#5D5C5D" width="4" height="2"/><rect x="-21.5" y="112.5" fill="#5D5C5D" width="4" height="2"/><rect x="-21.5" y="106.5" fill="#5D5C5D" width="4" height="2"/><rect x="-1.5" y="72.5" fill="#5D5C5D" width="20" height="2"/><path fill="#B7B7B7" d="M-77.5 30.5v8h-8v52h44v-8h8v-52H-77.5zM-45.5 86.5h-36v-44h4v40h32V86.5zM-37.5 78.5h-4 -4 -28v-36 -4 -4h36V78.5z"/><rect x="-69.5" y="38.5" fill="#B7B7B7" width="28" height="6"/><rect x="-69.5" y="48.5" fill="#B7B7B7" width="4" height="2"/><rect x="-61.5" y="48.5" fill="#B7B7B7" width="20" height="2"/><rect x="-69.5" y="54.5" fill="#B7B7B7" width="4" height="2"/><rect x="-61.5" y="54.5" fill="#B7B7B7" width="20" height="2"/><rect x="-69.5" y="60.5" fill="#B7B7B7" width="4" height="2"/><rect x="-61.5" y="60.5" fill="#B7B7B7" width="20" height="2"/><rect x="-69.5" y="66.5" fill="#B7B7B7" width="4" height="2"/><rect x="-61.5" y="66.5" fill="#B7B7B7" width="20" height="2"/><rect x="-69.5" y="72.5" fill="#B7B7B7" width="4" height="2"/><rect x="-61.5" y="72.5" fill="#B7B7B7" width="20" height="2"/><rect x="-13.5" y="122.5" fill="#6DC5DC" width="6" height="10"/><rect x="16.5" y="118.5" fill="#6DC5DC" width="6" height="14"/><rect x="-3.5" y="114.5" fill="#6DC5DC" width="6" height="18"/><rect x="6.5" y="106.5" fill="#6DC5DC" width="6" height="26"/><path fill="#B7B7B7" d="M-33.5 98.5v44h-52v-44H-33.5M-29.5 94.5h-60v52h60V94.5L-29.5 94.5z"/><rect x="-81.5" y="136.5" fill="#B7B7B7" width="44" height="2"/><rect x="-81.5" y="130.5" fill="#B7B7B7" width="4" height="2"/><rect x="-81.5" y="124.5" fill="#B7B7B7" width="4" height="2"/><rect x="-81.5" y="118.5" fill="#B7B7B7" width="4" height="2"/><rect x="-81.5" y="112.5" fill="#B7B7B7" width="4" height="2"/><rect x="-81.5" y="106.5" fill="#B7B7B7" width="4" height="2"/><rect x="-73.5" y="122.5" fill="#B7B7B7" width="6" height="10"/><rect x="-43.5" y="118.5" fill="#B7B7B7" width="6" height="14"/><rect x="-63.5" y="114.5" fill="#B7B7B7" width="6" height="18"/><rect x="-53.5" y="106.5" fill="#B7B7B7" width="6" height="26"/><rect x="71.935" y="-135.934" transform="matrix(-0.7071 -0.7071 0.7071 -0.7071 220.2125 -174.6522)" fill="#52BAD5" width="4" height="6.001"/><rect x="38.5" y="-121.5" fill="#52BAD5" width="6" height="4"/><rect x="76.5" y="-121.5" fill="#52BAD5" width="6" height="4"/><rect x="45.065" y="-135.933" transform="matrix(0.7071 -0.7071 0.7071 0.7071 107.7831 -5.6558)" fill="#52BAD5" width="4" height="5.999"/><path fill="#52BAD5" d="M68.5-111.498c0 0.693-0.117 1.355-0.283 1.998 -0.891 3.443-3.992 6-7.717 6 -3.725 0-6.826-2.557-7.717-6 -0.166-0.643-0.283-1.305-0.283-1.998 0-3.494 2.254-6.436 5.377-7.525L59-141.5h3l1.123 22.477C66.246-117.934 68.5-114.992 68.5-111.498zM60.5-115.5c-2.211 0-4 1.793-4 4 0 2.209 1.789 4 4 4 2.211 0 4-1.791 4-4C64.5-113.707 62.711-115.5 60.5-115.5z"/><path fill="#52BAD5" d="M60.5-149.5c-16.569 0-30 13.431-30 30s13.431 30 30 30 30-13.431 30-30S77.069-149.5 60.5-149.5zM60.5-145.5c14.359 0 26 11.641 26 26 0 3.545-0.715 6-1.999 10H72.32c-0.954 6-5.876 10-11.82 10s-10.866-4-11.82-10H36.499c-1.284-4-1.999-6.455-1.999-10C34.5-133.859 46.141-145.5 60.5-145.5z"/><rect x="44.5" y="-77.5" fill="#52BAD5" width="16" height="2"/><rect x="44.5" y="-73.5" fill="#52BAD5" width="32" height="2"/><rect x="44.5" y="-69.5" fill="#52BAD5" width="32" height="2"/><polygon fill="#52BAD5" points="60.5,-87.5 51.5,-81.5 69.5,-81.5   "/><path fill="#52BAD5" d="M82.5-72.833v5.333 0.558l-22 14.667 -22-14.667V-67.5v-5.333l-8 5.333v36h60v-36L82.5-72.833zM86.5-35.5h-52v-29.333l26 17.333 26-17.333V-35.5z"/><rect x="42.5" y="-21.5" fill="#52BAD5" width="36" height="14"/><polygon fill="#52BAD5" points="52.5,-3.5 50.5,-3.5 46.5,-3.5 46.5,-1.5 46.5,0.5 48.5,0.5 48.5,-1.5 50.5,-1.5 50.5,4.5    48.5,4.5 48.5,6.5 50.5,6.5 52.5,6.5 54.5,6.5 54.5,4.5 52.5,4.5 52.5,-1.5 54.5,-1.5 54.5,0.5 56.5,0.5 56.5,-1.5 56.5,-3.5  "/><rect x="60.5" y="-3.5" fill="#52BAD5" width="18" height="2"/><rect x="60.5" y="0.5" fill="#52BAD5" width="18" height="2"/><rect x="60.5" y="4.5" fill="#52BAD5" width="18" height="2"/><rect x="42.5" y="10.5" fill="#52BAD5" width="36" height="2"/><rect x="42.5" y="14.5" fill="#52BAD5" width="36" height="2"/><rect x="42.5" y="18.5" fill="#52BAD5" width="18" height="2"/><path fill="#52BAD5" d="M82.5-25.5v52h-44v-52H82.5M86.5-29.5h-52v60h52V-29.5L86.5-29.5z"/><path fill="#52BAD5" d="M42.5 160.5h-12v2h12v2h-12v2h12v2h-8v32h48v-8h8v-32H42.5zM78.5 196.5h-40v-24h4v20h36V196.5zM86.5 188.5h-4 -4 -32v-16 -4 -4h40V188.5z"/><rect x="60.5" y="174.5" fill="#52BAD5" width="12" height="2"/><rect x="60.5" y="178.5" fill="#52BAD5" width="12" height="2"/><rect x="76.5" y="168.5" fill="#52BAD5" width="6" height="6"/><path fill="#52BAD5" d="M77.712 254.888L67.7 244.872c4.105-5.484 3.684-13.287-1.301-18.273 -5.467-5.465-14.334-5.465-19.801 0.002 -5.465 5.465-5.465 14.332 0 19.797 4.984 4.986 12.789 5.408 18.273 1.299l10.012 10.016L77.712 254.888zM49.427 243.571c-3.898-3.899-3.898-10.242 0-14.141 3.898-3.898 10.244-3.898 14.143 0 3.9 3.899 3.9 10.242 0 14.141C59.671 247.473 53.327 247.473 49.427 243.571z"/><path fill="#52BAD5" d="M42.5 30.5v8h-8v52h44v-8h8v-52H42.5zM74.5 86.5h-36v-44h4v40h32V86.5zM82.5 78.5h-4 -4 -28v-36 -4 -4h36V78.5z"/><rect x="50.5" y="38.5" fill="#52BAD5" width="28" height="6"/><rect x="50.5" y="48.5" fill="#52BAD5" width="4" height="2"/><rect x="58.5" y="48.5" fill="#52BAD5" width="20" height="2"/><rect x="50.5" y="54.5" fill="#52BAD5" width="4" height="2"/><rect x="58.5" y="54.5" fill="#52BAD5" width="20" height="2"/><rect x="50.5" y="60.5" fill="#52BAD5" width="4" height="2"/><rect x="58.5" y="60.5" fill="#52BAD5" width="20" height="2"/><rect x="50.5" y="66.5" fill="#52BAD5" width="4" height="2"/><rect x="58.5" y="66.5" fill="#52BAD5" width="20" height="2"/><rect x="50.5" y="72.5" fill="#52BAD5" width="4" height="2"/><rect x="58.5" y="72.5" fill="#52BAD5" width="20" height="2"/><path fill="#52BAD5" d="M86.5 98.5v44h-52v-44H86.5M90.5 94.5h-60v52h60V94.5L90.5 94.5z"/><rect x="38.5" y="136.5" fill="#52BAD5" width="44" height="2"/><rect x="38.5" y="130.5" fill="#52BAD5" width="4" height="2"/><rect x="38.5" y="124.5" fill="#52BAD5" width="4" height="2"/><rect x="38.5" y="118.5" fill="#52BAD5" width="4" height="2"/><rect x="38.5" y="112.5" fill="#52BAD5" width="4" height="2"/><rect x="38.5" y="106.5" fill="#52BAD5" width="4" height="2"/><rect x="46.5" y="122.5" fill="#52BAD5" width="6" height="10"/><rect x="76.5" y="118.5" fill="#52BAD5" width="6" height="14"/><rect x="56.5" y="114.5" fill="#52BAD5" width="6" height="18"/><rect x="66.5" y="106.5" fill="#52BAD5" width="6" height="26"/><rect x="131.935" y="-135.934" transform="matrix(-0.7071 -0.7071 0.7071 -0.7071 322.6389 -132.2258)" fill="#2C9AB7" width="4" height="6.001"/><rect x="98.5" y="-121.5" fill="#2C9AB7" width="6" height="4"/><rect x="136.5" y="-121.5" fill="#2C9AB7" width="6" height="4"/><rect x="105.065" y="-135.933" transform="matrix(0.7071 -0.7071 0.7071 0.7071 125.3567 36.7706)" fill="#2C9AB7" width="4" height="5.999"/><path fill="#2C9AB7" d="M128.5-111.498c0 0.693-0.117 1.355-0.283 1.998 -0.891 3.443-3.992 6-7.717 6 -3.725 0-6.826-2.557-7.717-6 -0.166-0.643-0.283-1.305-0.283-1.998 0-3.494 2.254-6.436 5.377-7.525L119-141.5h3l1.123 22.477C126.246-117.934 128.5-114.992 128.5-111.498zM120.5-115.5c-2.211 0-4 1.793-4 4 0 2.209 1.789 4 4 4 2.211 0 4-1.791 4-4C124.5-113.707 122.711-115.5 120.5-115.5z"/><path fill="#2C9AB7" d="M120.5-149.5c-16.569 0-30 13.431-30 30s13.431 30 30 30 30-13.431 30-30S137.069-149.5 120.5-149.5zM120.5-145.5c14.359 0 26 11.641 26 26 0 3.545-0.715 6-1.999 10H132.32c-0.954 6-5.876 10-11.82 10s-10.866-4-11.82-10H96.499c-1.284-4-1.999-6.455-1.999-10C94.5-133.859 106.141-145.5 120.5-145.5z"/><rect x="104.5" y="-77.5" fill="#2C9AB7" width="16" height="2"/><rect x="104.5" y="-73.5" fill="#2C9AB7" width="32" height="2"/><rect x="104.5" y="-69.5" fill="#2C9AB7" width="32" height="2"/><polygon fill="#2C9AB7" points="120.5,-87.5 111.5,-81.5 129.5,-81.5   "/><path fill="#2C9AB7" d="M142.5-72.833v5.333 0.558l-22 14.667 -22-14.667V-67.5v-5.333l-8 5.333v36h60v-36L142.5-72.833zM146.5-35.5h-52v-29.333l26 17.333 26-17.333V-35.5z"/><rect x="102.5" y="-21.5" fill="#2C9AB7" width="36" height="14"/><polygon fill="#2C9AB7" points="112.5,-3.5 110.5,-3.5 106.5,-3.5 106.5,-1.5 106.5,0.5 108.5,0.5 108.5,-1.5 110.5,-1.5    110.5,4.5 108.5,4.5 108.5,6.5 110.5,6.5 112.5,6.5 114.5,6.5 114.5,4.5 112.5,4.5 112.5,-1.5 114.5,-1.5 114.5,0.5 116.5,0.5    116.5,-1.5 116.5,-3.5  "/><rect x="120.5" y="-3.5" fill="#2C9AB7" width="18" height="2"/><rect x="120.5" y="0.5" fill="#2C9AB7" width="18" height="2"/><rect x="120.5" y="4.5" fill="#2C9AB7" width="18" height="2"/><rect x="102.5" y="10.5" fill="#2C9AB7" width="36" height="2"/><rect x="102.5" y="14.5" fill="#2C9AB7" width="36" height="2"/><rect x="102.5" y="18.5" fill="#2C9AB7" width="18" height="2"/><path fill="#2C9AB7" d="M142.5-25.5v52h-44v-52H142.5M146.5-29.5h-52v60h52V-29.5L146.5-29.5z"/><path fill="#2C9AB7" d="M102.5 160.5h-12v2h12v2h-12v2h12v2h-8v32h48v-8h8v-32H102.5zM138.5 196.5h-40v-24h4v20h36V196.5zM146.5 188.5h-4 -4 -32v-16 -4 -4h40V188.5z"/><rect x="120.5" y="174.5" fill="#2C9AB7" width="12" height="2"/><rect x="120.5" y="178.5" fill="#2C9AB7" width="12" height="2"/><rect x="136.5" y="168.5" fill="#2C9AB7" width="6" height="6"/><path fill="#2C9AB7" d="M137.712 254.888L127.7 244.872c4.105-5.484 3.684-13.287-1.301-18.273 -5.467-5.465-14.334-5.465-19.801 0.002 -5.465 5.465-5.465 14.332 0 19.797 4.984 4.986 12.789 5.408 18.273 1.299l10.012 10.016L137.712 254.888zM109.427 243.571c-3.898-3.899-3.898-10.242 0-14.141 3.898-3.898 10.244-3.898 14.143 0 3.9 3.899 3.9 10.242 0 14.141C119.671 247.473 113.327 247.473 109.427 243.571z"/><path fill="#2C9AB7" d="M102.5 30.5v8h-8v52h44v-8h8v-52H102.5zM134.5 86.5h-36v-44h4v40h32V86.5zM142.5 78.5h-4 -4 -28v-36 -4 -4h36V78.5z"/><rect x="110.5" y="38.5" fill="#2C9AB7" width="28" height="6"/><rect x="110.5" y="48.5" fill="#2C9AB7" width="4" height="2"/><rect x="118.5" y="48.5" fill="#2C9AB7" width="20" height="2"/><rect x="110.5" y="54.5" fill="#2C9AB7" width="4" height="2"/><rect x="118.5" y="54.5" fill="#2C9AB7" width="20" height="2"/><rect x="110.5" y="60.5" fill="#2C9AB7" width="4" height="2"/><rect x="118.5" y="60.5" fill="#2C9AB7" width="20" height="2"/><rect x="110.5" y="66.5" fill="#2C9AB7" width="4" height="2"/><rect x="118.5" y="66.5" fill="#2C9AB7" width="20" height="2"/><rect x="110.5" y="72.5" fill="#2C9AB7" width="4" height="2"/><rect x="118.5" y="72.5" fill="#2C9AB7" width="20" height="2"/><path fill="#2C9AB7" d="M146.5 98.5v44h-52v-44H146.5M150.5 94.5h-60v52h60V94.5L150.5 94.5z"/><rect x="98.5" y="136.5" fill="#2C9AB7" width="44" height="2"/><rect x="98.5" y="130.5" fill="#2C9AB7" width="4" height="2"/><rect x="98.5" y="124.5" fill="#2C9AB7" width="4" height="2"/><rect x="98.5" y="118.5" fill="#2C9AB7" width="4" height="2"/><rect x="98.5" y="112.5" fill="#2C9AB7" width="4" height="2"/><rect x="98.5" y="106.5" fill="#2C9AB7" width="4" height="2"/><rect x="106.5" y="122.5" fill="#2C9AB7" width="6" height="10"/><rect x="136.5" y="118.5" fill="#2C9AB7" width="6" height="14"/><rect x="116.5" y="114.5" fill="#2C9AB7" width="6" height="18"/><rect x="126.5" y="106.5" fill="#2C9AB7" width="6" height="26"/></svg>